<?xml version="1.0" encoding="UTF-8"?>
<svg id="Camada_1" data-name="Camada 1" xmlns="http://www.w3.org/2000/svg" viewBox="0 0 1282 1028">
  <defs>
    <style>
      .cls-1 {
        stroke-width: 0px;
      }

      .cls-2 {
        fill: #fff;
        stroke: #fff;
        stroke-linecap: round;
        stroke-linejoin: round;
        stroke-width: 33px;
      }
    </style>
  </defs>
  <g>
    <g>
      <path class="cls-2" d="m343.78,342.85l-9.19,42.81h-72.34l-42.16,198.98h-50.85l42.16-198.98h-72.67l9.19-42.81h195.86Z"/>
      <path class="cls-2" d="m225.09,590.79h-63.44l42.16-198.98h-72.69l11.83-55.13h208.46l-11.83,55.13h-72.33l-42.16,198.98Zm-48.24-12.32h38.26l42.16-198.98h72.35l6.54-30.5h-183.26l-6.54,30.5h72.65l-42.16,198.98Z"/>
    </g>
    <g>
      <path class="cls-2" d="m426.42,401.9l-10.17,47.9c-2.84-.33-5.41-.55-7.71-.66-2.3-.11-4.16-.16-5.58-.16-18.81,0-32.75,6.13-41.83,18.37-5.03,6.89-9.08,17.5-12.14,31.82l-18.04,85.46h-47.08l37.89-178.8h44.62l-6.56,31.17c9.73-11.92,17.72-20.07,23.95-24.44,10.39-7.33,22.58-10.99,36.58-10.99.87,0,1.61.03,2.21.08.6.06,1.89.14,3.85.25Z"/>
      <path class="cls-2" d="m335.95,590.79h-59.67l40.5-191.12h57.2l-3.38,16.08c3.52-3.45,6.72-6.18,9.64-8.23,11.39-8.03,24.89-12.11,40.12-12.11,1.06,0,1.96.03,2.76.11.32.03,1.17.1,3.64.23l7.18.39-12.83,60.42-5.57-.64c-2.69-.31-5.14-.52-7.3-.62-2.21-.1-3.99-.16-5.28-.16-16.9,0-28.96,5.19-36.88,15.88-4.47,6.12-8.2,16.04-11.06,29.44l-19.07,90.33Zm-44.47-12.32h34.48l17.01-80.58c3.28-15.34,7.59-26.51,13.19-34.18,10.29-13.88,26.02-20.9,46.8-20.9,1.51,0,3.43.06,5.87.17.81.04,1.66.09,2.54.15l7.52-35.4c-12.03.25-22.64,3.56-31.56,9.85-5.75,4.04-13.4,11.88-22.73,23.3l-16.01,19.61,10.21-48.51h-32.04l-35.28,166.48Z"/>
    </g>
    <g>
      <path class="cls-2" d="m438.2,405.84h47.41l-37.89,178.8h-47.41l37.89-178.8Zm52-21.32h-47.41l9.19-43.14h47.41l-9.19,43.14Z"/>
      <path class="cls-2" d="m452.7,590.79h-60l40.5-191.12h60l-40.5,191.12Zm-44.8-12.32h34.81l35.28-166.48h-34.81l-35.28,166.48Zm87.28-187.81h-60l11.81-55.46h60l-11.81,55.46Zm-44.78-12.32h34.81l6.56-30.82h-34.81l-6.56,30.82Z"/>
    </g>
    <g>
      <path class="cls-2" d="m668.31,492.94c-6.67,31.49-18.84,55.5-36.5,72.01-17.66,16.51-37.65,24.77-59.95,24.77-14.22,0-25.26-3.56-33.14-10.66-4.38-3.94-8.2-9.68-11.48-17.22l-19.85,93.17h-46.26l52.98-249.17h44.78l-5.58,26.41c6.67-7.76,13.34-13.89,20.01-18.37,12.03-7.98,25.21-11.97,39.53-11.97,20.89,0,36.93,7.71,48.14,23.13,11.21,15.42,13.64,38.06,7.3,67.91Zm-77.59-50.19c-16.95,0-30.29,8.04-40.02,24.11-5.03,8.53-8.97,19.36-11.81,32.48-4.38,20.78-1.97,35.38,7.22,43.8,5.58,4.92,12.85,7.38,21.82,7.38,13.01,0,24-5.03,32.97-15.09,8.97-10.06,15.2-23.46,18.7-40.19,2.95-13.78,2.4-25.97-1.64-36.58-4.05-10.61-13.12-15.91-27.23-15.91Z"/>
      <path class="cls-2" d="m512.37,661.16h-58.85l55.6-261.49h57.36l-2.91,13.79c2.11-1.72,4.21-3.29,6.32-4.7,13.03-8.65,27.48-13.02,42.97-13.02,22.87,0,40.74,8.64,53.13,25.67,12.23,16.82,15.03,41.32,8.34,72.81h0c-6.91,32.61-19.8,57.92-38.32,75.23-18.76,17.54-40.34,26.43-64.16,26.43-15.72,0-28.26-4.12-37.26-12.25-1.61-1.45-3.16-3.11-4.64-4.98l-17.58,82.51Zm-43.64-12.32h33.67l22.82-107.1,7.67,17.63c2.91,6.7,6.26,11.78,9.95,15.1,6.68,6.03,16.44,9.08,29.02,9.08,20.88,0,39.12-7.56,55.75-23.11,16.64-15.56,28.31-38.7,34.68-68.79h0c5.93-27.94,3.83-49.14-6.26-63.01-10.07-13.86-24.19-20.59-43.16-20.59-13.02,0-25.18,3.68-36.13,10.95-6.15,4.14-12.47,9.95-18.75,17.25l-15.67,18.24,8.98-42.5h-32.2l-50.36,236.85Zm99.18-92.17c-10.47,0-19.18-3-25.89-8.92l-.09-.08c-10.86-9.96-13.92-26.65-9.08-49.61,2.98-13.74,7.19-25.28,12.53-34.34l.04-.06c10.88-17.97,26.12-27.08,45.29-27.08,20.99,0,29.52,10.81,32.98,19.88,4.46,11.69,5.1,25.17,1.91,40.07-3.7,17.69-10.48,32.17-20.12,43-10.14,11.38-22.78,17.15-37.57,17.15Zm-17.7-18.12c4.45,3.9,10.24,5.8,17.7,5.8,11.28,0,20.56-4.26,28.37-13.03,8.2-9.2,14.01-21.77,17.27-37.35,2.69-12.56,2.23-23.69-1.37-33.12-1.96-5.13-6.31-11.95-21.47-11.95s-26.13,6.91-34.74,21.11c-4.67,7.92-8.39,18.22-11.08,30.62-3.86,18.33-2.07,31.1,5.32,37.91Z"/>
    </g>
    <g>
      <path class="cls-2" d="m858.06,492.94c-6.67,31.49-18.84,55.5-36.5,72.01-17.66,16.51-37.65,24.77-59.95,24.77-14.22,0-25.26-3.56-33.14-10.66-4.38-3.94-8.2-9.68-11.48-17.22l-19.85,93.17h-46.26l52.98-249.17h44.78l-5.58,26.41c6.67-7.76,13.34-13.89,20.01-18.37,12.03-7.98,25.21-11.97,39.53-11.97,20.89,0,36.93,7.71,48.14,23.13,11.21,15.42,13.64,38.06,7.3,67.91Zm-77.59-50.19c-16.95,0-30.29,8.04-40.02,24.11-5.03,8.53-8.97,19.36-11.81,32.48-4.38,20.78-1.97,35.38,7.22,43.8,5.58,4.92,12.85,7.38,21.82,7.38,13.01,0,24-5.03,32.97-15.09,8.97-10.06,15.2-23.46,18.7-40.19,2.95-13.78,2.4-25.97-1.64-36.58-4.05-10.61-13.12-15.91-27.23-15.91Z"/>
      <path class="cls-2" d="m702.13,661.16h-58.85l55.6-261.49h57.36l-2.91,13.79c2.11-1.72,4.21-3.29,6.32-4.7,13.03-8.65,27.48-13.02,42.97-13.02,22.87,0,40.74,8.64,53.13,25.67,12.22,16.82,15.03,41.32,8.34,72.81h0c-6.91,32.61-19.8,57.92-38.32,75.23-18.76,17.54-40.34,26.43-64.16,26.43-15.72,0-28.26-4.12-37.26-12.25-1.61-1.45-3.16-3.11-4.64-4.98l-17.58,82.51Zm-43.64-12.32h33.67l22.82-107.1,7.67,17.63c2.91,6.7,6.26,11.78,9.95,15.1,6.68,6.03,16.44,9.08,29.02,9.08,20.88,0,39.12-7.56,55.75-23.11,16.64-15.56,28.3-38.7,34.68-68.79h0c5.93-27.94,3.83-49.14-6.26-63.01-10.07-13.86-24.19-20.59-43.16-20.59-13.02,0-25.18,3.68-36.13,10.95-6.15,4.14-12.47,9.95-18.75,17.25l-15.67,18.24,8.98-42.5h-32.2l-50.36,236.85Zm99.18-92.17c-10.47,0-19.18-3-25.89-8.92l-.09-.08c-10.86-9.96-13.92-26.65-9.08-49.61,2.98-13.74,7.19-25.28,12.53-34.34l.04-.06c10.88-17.97,26.12-27.08,45.29-27.08,20.99,0,29.52,10.81,32.98,19.87,4.46,11.69,5.1,25.17,1.91,40.07-3.7,17.69-10.47,32.17-20.12,43-10.14,11.38-22.78,17.15-37.57,17.15Zm-17.7-18.12c4.45,3.9,10.24,5.8,17.7,5.8,11.28,0,20.56-4.26,28.37-13.03,8.2-9.2,14.01-21.77,17.27-37.35,2.69-12.56,2.23-23.69-1.37-33.12-1.96-5.13-6.31-11.95-21.47-11.95s-26.13,6.91-34.74,21.11c-4.67,7.92-8.39,18.22-11.08,30.62-3.86,18.33-2.07,31.1,5.32,37.92Z"/>
    </g>
    <g>
      <path class="cls-2" d="m1028.79,435.85c4.81,10.61,6.73,22.91,5.74,36.91-.44,8.2-2.41,20.01-5.91,35.43h-122.37c-3.17,17.94-.22,30.51,8.86,37.73,5.47,4.48,12.74,6.73,21.82,6.73,9.62,0,18.04-2.73,25.26-8.2,3.83-2.95,7.6-7.05,11.32-12.3h47.73c-3.5,10.61-11.32,21.38-23.46,32.31-19.03,17.39-42.32,26.08-69.88,26.08-22.75,0-41.25-7.33-55.53-21.98-14.27-14.65-17.91-38.49-10.91-71.52,6.56-30.95,19.44-54.68,38.63-71.19,19.19-16.51,41.31-24.77,66.35-24.77,14.87,0,27.69,2.79,38.47,8.37,10.77,5.58,18.73,14.38,23.87,26.41Zm-114.82,41.5h72.67c1.86-12.36.08-21.73-5.33-28.13s-13.1-9.6-23.05-9.6c-10.83,0-19.93,3.39-27.31,10.17-7.38,6.78-13.04,15.97-16.98,27.56Z"/>
      <path class="cls-2" d="m927.91,596.7c-24.37,0-44.53-8.02-59.94-23.84-15.73-16.15-19.94-42.09-12.52-77.09,6.82-32.15,20.49-57.25,40.64-74.58,20.25-17.42,43.93-26.26,70.37-26.26,15.8,0,29.69,3.05,41.3,9.06,12,6.22,20.98,16.11,26.67,29.4,5.19,11.48,7.29,24.86,6.25,39.77-.47,8.63-2.44,20.54-6.05,36.41l-1.09,4.8h-121.96c-1.42,12.74,1.05,21.72,7.37,26.75l.07.06c4.37,3.59,10.23,5.33,17.91,5.33,8.32,0,15.37-2.27,21.54-6.95,3.28-2.53,6.67-6.23,10.01-10.95l1.84-2.6h59.44l-2.67,8.09c-3.83,11.59-12.3,23.35-25.18,34.96-20.08,18.35-44.99,27.66-74,27.66Zm38.55-189.46c-23.41,0-44.38,7.83-62.34,23.28-18.06,15.54-30.38,38.35-36.62,67.8-6.51,30.74-3.39,52.92,9.3,65.94,13.18,13.54,29.9,20.12,51.11,20.12,25.84,0,47.96-8.23,65.72-24.47,8.15-7.34,14.22-14.57,18.15-21.61h-35.16c-3.47,4.53-7.05,8.22-10.67,11.02-8.32,6.3-18.07,9.48-29.02,9.48s-19.12-2.72-25.69-8.09c-10.91-8.7-14.63-23.37-11.05-43.59l.9-5.09h122.59c2.75-12.7,4.33-22.64,4.7-29.6v-.1c.91-12.9-.84-24.31-5.2-33.93l-.05-.12c-4.61-10.77-11.49-18.42-21.04-23.36-9.84-5.09-21.83-7.68-35.63-7.68Zm25.48,76.28h-86.57l2.76-8.14c4.25-12.53,10.53-22.66,18.64-30.11,8.52-7.83,19.11-11.79,31.48-11.79s21.14,3.96,27.75,11.78c6.58,7.78,8.85,18.89,6.72,33.03l-.79,5.24Zm-68.86-12.32h58.03c.46-7.87-1.04-13.91-4.5-17.99-4.22-4.99-10.22-7.42-18.35-7.42-9.31,0-16.88,2.8-23.15,8.55-4.79,4.4-8.82,10.05-12.04,16.86Z"/>
    </g>
    <g>
      <path class="cls-2" d="m1170.48,401.9l-10.17,47.9c-2.84-.33-5.41-.55-7.71-.66-2.3-.11-4.16-.16-5.58-.16-18.81,0-32.75,6.13-41.83,18.37-5.03,6.89-9.08,17.5-12.14,31.82l-18.04,85.46h-47.08l37.89-178.8h44.62l-6.56,31.17c9.73-11.92,17.72-20.07,23.95-24.44,10.39-7.33,22.58-10.99,36.58-10.99.87,0,1.61.03,2.21.08.6.06,1.89.14,3.85.25Z"/>
      <path class="cls-2" d="m1080.01,590.79h-59.67l40.5-191.12h57.2l-3.38,16.08c3.52-3.45,6.72-6.18,9.64-8.23,11.39-8.03,24.89-12.11,40.12-12.11,1.06,0,1.96.03,2.76.11.32.03,1.17.1,3.64.23l7.18.39-12.83,60.42-5.57-.64c-2.69-.31-5.14-.52-7.3-.62-2.21-.1-3.99-.16-5.28-.16-16.9,0-28.96,5.19-36.88,15.88-4.47,6.12-8.2,16.04-11.06,29.44l-19.07,90.33Zm-44.47-12.32h34.48l17.01-80.58c3.28-15.34,7.59-26.51,13.19-34.18,10.28-13.88,26.02-20.9,46.8-20.9,1.51,0,3.43.06,5.87.17.81.04,1.66.09,2.54.15l7.52-35.4c-12.03.25-22.64,3.56-31.56,9.85-5.75,4.04-13.4,11.88-22.73,23.3l-16.01,19.61,10.21-48.52h-32.04l-35.28,166.48Z"/>
    </g>
  </g>
  <g>
    <g>
      <path class="cls-1" d="m343.78,342.85l-9.19,42.81h-72.34l-42.16,198.98h-50.85l42.16-198.98h-72.67l9.19-42.81h195.86Z"/>
      <path class="cls-1" d="m225.09,590.79h-63.44l42.16-198.98h-72.69l11.83-55.13h208.46l-11.83,55.13h-72.33l-42.16,198.98Zm-48.24-12.32h38.26l42.16-198.98h72.35l6.54-30.5h-183.26l-6.54,30.5h72.65l-42.16,198.98Z"/>
    </g>
    <g>
      <path class="cls-1" d="m426.42,401.9l-10.17,47.9c-2.84-.33-5.41-.55-7.71-.66-2.3-.11-4.16-.16-5.58-.16-18.81,0-32.75,6.13-41.83,18.37-5.03,6.89-9.08,17.5-12.14,31.82l-18.04,85.46h-47.08l37.89-178.8h44.62l-6.56,31.17c9.73-11.92,17.72-20.07,23.95-24.44,10.39-7.33,22.58-10.99,36.58-10.99.87,0,1.61.03,2.21.08.6.06,1.89.14,3.85.25Z"/>
      <path class="cls-1" d="m335.95,590.79h-59.67l40.5-191.12h57.2l-3.38,16.08c3.52-3.45,6.72-6.18,9.64-8.23,11.39-8.03,24.89-12.11,40.12-12.11,1.06,0,1.96.03,2.76.11.32.03,1.17.1,3.64.23l7.18.39-12.83,60.42-5.57-.64c-2.69-.31-5.14-.52-7.3-.62-2.21-.1-3.99-.16-5.28-.16-16.9,0-28.96,5.19-36.88,15.88-4.47,6.12-8.2,16.04-11.06,29.44l-19.07,90.33Zm-44.47-12.32h34.48l17.01-80.58c3.28-15.34,7.59-26.51,13.19-34.18,10.29-13.88,26.02-20.9,46.8-20.9,1.51,0,3.43.06,5.87.17.81.04,1.66.09,2.54.15l7.52-35.4c-12.03.25-22.64,3.56-31.56,9.85-5.75,4.04-13.4,11.88-22.73,23.3l-16.01,19.61,10.21-48.51h-32.04l-35.28,166.48Z"/>
    </g>
    <g>
      <path class="cls-1" d="m438.2,405.84h47.41l-37.89,178.8h-47.41l37.89-178.8Zm52-21.32h-47.41l9.19-43.14h47.41l-9.19,43.14Z"/>
      <path class="cls-1" d="m452.7,590.79h-60l40.5-191.12h60l-40.5,191.12Zm-44.8-12.32h34.81l35.28-166.48h-34.81l-35.28,166.48Zm87.28-187.81h-60l11.81-55.46h60l-11.81,55.46Zm-44.78-12.32h34.81l6.56-30.82h-34.81l-6.56,30.82Z"/>
    </g>
    <g>
      <path class="cls-1" d="m668.31,492.94c-6.67,31.49-18.84,55.5-36.5,72.01-17.66,16.51-37.65,24.77-59.95,24.77-14.22,0-25.26-3.56-33.14-10.66-4.38-3.94-8.2-9.68-11.48-17.22l-19.85,93.17h-46.26l52.98-249.17h44.78l-5.58,26.41c6.67-7.76,13.34-13.89,20.01-18.37,12.03-7.98,25.21-11.97,39.53-11.97,20.89,0,36.93,7.71,48.14,23.13,11.21,15.42,13.64,38.06,7.3,67.91Zm-77.59-50.19c-16.95,0-30.29,8.04-40.02,24.11-5.03,8.53-8.97,19.36-11.81,32.48-4.38,20.78-1.97,35.38,7.22,43.8,5.58,4.92,12.85,7.38,21.82,7.38,13.01,0,24-5.03,32.97-15.09,8.97-10.06,15.2-23.46,18.7-40.19,2.95-13.78,2.4-25.97-1.64-36.58-4.05-10.61-13.12-15.91-27.23-15.91Z"/>
      <path class="cls-1" d="m512.37,661.16h-58.85l55.6-261.49h57.36l-2.91,13.79c2.11-1.72,4.21-3.29,6.32-4.7,13.03-8.65,27.48-13.02,42.97-13.02,22.87,0,40.74,8.64,53.13,25.67,12.23,16.82,15.03,41.32,8.34,72.81h0c-6.91,32.61-19.8,57.92-38.32,75.23-18.76,17.54-40.34,26.43-64.16,26.43-15.72,0-28.26-4.12-37.26-12.25-1.61-1.45-3.16-3.11-4.64-4.98l-17.58,82.51Zm-43.64-12.32h33.67l22.82-107.1,7.67,17.63c2.91,6.7,6.26,11.78,9.95,15.1,6.68,6.03,16.44,9.08,29.02,9.08,20.88,0,39.12-7.56,55.75-23.11,16.64-15.56,28.31-38.7,34.68-68.79h0c5.93-27.94,3.83-49.14-6.26-63.01-10.07-13.86-24.19-20.59-43.16-20.59-13.02,0-25.18,3.68-36.13,10.95-6.15,4.14-12.47,9.95-18.75,17.25l-15.67,18.24,8.98-42.5h-32.2l-50.36,236.85Zm99.18-92.17c-10.47,0-19.18-3-25.89-8.92l-.09-.08c-10.86-9.96-13.92-26.65-9.08-49.61,2.98-13.74,7.19-25.28,12.53-34.34l.04-.06c10.88-17.97,26.12-27.08,45.29-27.08,20.99,0,29.52,10.81,32.98,19.88,4.46,11.69,5.1,25.17,1.91,40.07-3.7,17.69-10.48,32.17-20.12,43-10.14,11.38-22.78,17.15-37.57,17.15Zm-17.7-18.12c4.45,3.9,10.24,5.8,17.7,5.8,11.28,0,20.56-4.26,28.37-13.03,8.2-9.2,14.01-21.77,17.27-37.35,2.69-12.56,2.23-23.69-1.37-33.12-1.96-5.13-6.31-11.95-21.47-11.95s-26.13,6.91-34.74,21.11c-4.67,7.92-8.39,18.22-11.08,30.62-3.86,18.33-2.07,31.1,5.32,37.91Z"/>
    </g>
    <g>
      <path class="cls-1" d="m858.06,492.94c-6.67,31.49-18.84,55.5-36.5,72.01-17.66,16.51-37.65,24.77-59.95,24.77-14.22,0-25.26-3.56-33.14-10.66-4.38-3.94-8.2-9.68-11.48-17.22l-19.85,93.17h-46.26l52.98-249.17h44.78l-5.58,26.41c6.67-7.76,13.34-13.89,20.01-18.37,12.03-7.98,25.21-11.97,39.53-11.97,20.89,0,36.93,7.71,48.14,23.13,11.21,15.42,13.64,38.06,7.3,67.91Zm-77.59-50.19c-16.95,0-30.29,8.04-40.02,24.11-5.03,8.53-8.97,19.36-11.81,32.48-4.38,20.78-1.97,35.38,7.22,43.8,5.58,4.92,12.85,7.38,21.82,7.38,13.01,0,24-5.03,32.97-15.09,8.97-10.06,15.2-23.46,18.7-40.19,2.95-13.78,2.4-25.97-1.64-36.58-4.05-10.61-13.12-15.91-27.23-15.91Z"/>
      <path class="cls-1" d="m702.13,661.16h-58.85l55.6-261.49h57.36l-2.91,13.79c2.11-1.72,4.21-3.29,6.32-4.7,13.03-8.65,27.48-13.02,42.97-13.02,22.87,0,40.74,8.64,53.13,25.67,12.22,16.82,15.03,41.32,8.34,72.81h0c-6.91,32.61-19.8,57.92-38.32,75.23-18.76,17.54-40.34,26.43-64.16,26.43-15.72,0-28.26-4.12-37.26-12.25-1.61-1.45-3.16-3.11-4.64-4.98l-17.58,82.51Zm-43.64-12.32h33.67l22.82-107.1,7.67,17.63c2.91,6.7,6.26,11.78,9.95,15.1,6.68,6.03,16.44,9.08,29.02,9.08,20.88,0,39.12-7.56,55.75-23.11,16.64-15.56,28.3-38.7,34.68-68.79h0c5.93-27.94,3.83-49.14-6.26-63.01-10.07-13.86-24.19-20.59-43.16-20.59-13.02,0-25.18,3.68-36.13,10.95-6.15,4.14-12.47,9.95-18.75,17.25l-15.67,18.24,8.98-42.5h-32.2l-50.36,236.85Zm99.18-92.17c-10.47,0-19.18-3-25.89-8.92l-.09-.08c-10.86-9.96-13.92-26.65-9.08-49.61,2.98-13.74,7.19-25.28,12.53-34.34l.04-.06c10.88-17.97,26.12-27.08,45.29-27.08,20.99,0,29.52,10.81,32.98,19.87,4.46,11.69,5.1,25.17,1.91,40.07-3.7,17.69-10.47,32.17-20.12,43-10.14,11.38-22.78,17.15-37.57,17.15Zm-17.7-18.12c4.45,3.9,10.24,5.8,17.7,5.8,11.28,0,20.56-4.26,28.37-13.03,8.2-9.2,14.01-21.77,17.27-37.35,2.69-12.56,2.23-23.69-1.37-33.12-1.96-5.13-6.31-11.95-21.47-11.95s-26.13,6.91-34.74,21.11c-4.67,7.92-8.39,18.22-11.08,30.62-3.86,18.33-2.07,31.1,5.32,37.92Z"/>
    </g>
    <g>
      <path class="cls-1" d="m1028.79,435.85c4.81,10.61,6.73,22.91,5.74,36.91-.44,8.2-2.41,20.01-5.91,35.43h-122.37c-3.17,17.94-.22,30.51,8.86,37.73,5.47,4.48,12.74,6.73,21.82,6.73,9.62,0,18.04-2.73,25.26-8.2,3.83-2.95,7.6-7.05,11.32-12.3h47.73c-3.5,10.61-11.32,21.38-23.46,32.31-19.03,17.39-42.32,26.08-69.88,26.08-22.75,0-41.25-7.33-55.53-21.98-14.27-14.65-17.91-38.49-10.91-71.52,6.56-30.95,19.44-54.68,38.63-71.19,19.19-16.51,41.31-24.77,66.35-24.77,14.87,0,27.69,2.79,38.47,8.37,10.77,5.58,18.73,14.38,23.87,26.41Zm-114.82,41.5h72.67c1.86-12.36.08-21.73-5.33-28.13s-13.1-9.6-23.05-9.6c-10.83,0-19.93,3.39-27.31,10.17-7.38,6.78-13.04,15.97-16.98,27.56Z"/>
      <path class="cls-1" d="m927.91,596.7c-24.37,0-44.53-8.02-59.94-23.84-15.73-16.15-19.94-42.09-12.52-77.09,6.82-32.15,20.49-57.25,40.64-74.58,20.25-17.42,43.93-26.26,70.37-26.26,15.8,0,29.69,3.05,41.3,9.06,12,6.22,20.98,16.11,26.67,29.4,5.19,11.48,7.29,24.86,6.25,39.77-.47,8.63-2.44,20.54-6.05,36.41l-1.09,4.8h-121.96c-1.42,12.74,1.05,21.72,7.37,26.75l.07.06c4.37,3.59,10.23,5.33,17.91,5.33,8.32,0,15.37-2.27,21.54-6.95,3.28-2.53,6.67-6.23,10.01-10.95l1.84-2.6h59.44l-2.67,8.09c-3.83,11.59-12.3,23.35-25.18,34.96-20.08,18.35-44.99,27.66-74,27.66Zm38.55-189.46c-23.41,0-44.38,7.83-62.34,23.28-18.06,15.54-30.38,38.35-36.62,67.8-6.51,30.74-3.39,52.92,9.3,65.94,13.18,13.54,29.9,20.12,51.11,20.12,25.84,0,47.96-8.23,65.72-24.47,8.15-7.34,14.22-14.57,18.15-21.61h-35.16c-3.47,4.53-7.05,8.22-10.67,11.02-8.32,6.3-18.07,9.48-29.02,9.48s-19.12-2.72-25.69-8.09c-10.91-8.7-14.63-23.37-11.05-43.59l.9-5.09h122.59c2.75-12.7,4.33-22.64,4.7-29.6v-.1c.91-12.9-.84-24.31-5.2-33.93l-.05-.12c-4.61-10.77-11.49-18.42-21.04-23.36-9.84-5.09-21.83-7.68-35.63-7.68Zm25.48,76.28h-86.57l2.76-8.14c4.25-12.53,10.53-22.66,18.64-30.11,8.52-7.83,19.11-11.79,31.48-11.79s21.14,3.96,27.75,11.78c6.58,7.78,8.85,18.89,6.72,33.03l-.79,5.24Zm-68.86-12.32h58.03c.46-7.87-1.04-13.91-4.5-17.99-4.22-4.99-10.22-7.42-18.35-7.42-9.31,0-16.88,2.8-23.15,8.55-4.79,4.4-8.82,10.05-12.04,16.86Z"/>
    </g>
    <g>
      <path class="cls-1" d="m1170.48,401.9l-10.17,47.9c-2.84-.33-5.41-.55-7.71-.66-2.3-.11-4.16-.16-5.58-.16-18.81,0-32.75,6.13-41.83,18.37-5.03,6.89-9.08,17.5-12.14,31.82l-18.04,85.46h-47.08l37.89-178.8h44.62l-6.56,31.17c9.73-11.92,17.72-20.07,23.95-24.44,10.39-7.33,22.58-10.99,36.58-10.99.87,0,1.61.03,2.21.08.6.06,1.89.14,3.85.25Z"/>
      <path class="cls-1" d="m1080.01,590.79h-59.67l40.5-191.12h57.2l-3.38,16.08c3.52-3.45,6.72-6.18,9.64-8.23,11.39-8.03,24.89-12.11,40.12-12.11,1.06,0,1.96.03,2.76.11.32.03,1.17.1,3.64.23l7.18.39-12.83,60.42-5.57-.64c-2.69-.31-5.14-.52-7.3-.62-2.21-.1-3.99-.16-5.28-.16-16.9,0-28.96,5.19-36.88,15.88-4.47,6.12-8.2,16.04-11.06,29.44l-19.07,90.33Zm-44.47-12.32h34.48l17.01-80.58c3.28-15.34,7.59-26.51,13.19-34.18,10.28-13.88,26.02-20.9,46.8-20.9,1.51,0,3.43.06,5.87.17.81.04,1.66.09,2.54.15l7.52-35.4c-12.03.25-22.64,3.56-31.56,9.85-5.75,4.04-13.4,11.88-22.73,23.3l-16.01,19.61,10.21-48.52h-32.04l-35.28,166.48Z"/>
    </g>
  </g>
</svg>